<svg xmlns="http://www.w3.org/2000/svg" width="512" height="512" viewBox="0 0 512 512">
  <defs>
    <linearGradient id="g" x1="0" y1="0" x2="1" y2="1">
      <stop offset="0" stop-color="#22c55e"/>
      <stop offset="1" stop-color="#06b6d4"/>
    </linearGradient>
  </defs>
  <rect width="512" height="512" rx="112" fill="#0b1220"/>
  <circle cx="256" cy="256" r="170" fill="url(#g)" opacity="0.18"/>
  <path fill="url(#g)" d="M256 108c-86.6 0-157 70.4-157 157 0 32.6 10 63 27 88.1l-17.2 57.2 58.9-16.4c24.2 14.3 52.5 22.5 82.3 22.5 86.6 0 157-70.4 157-157s-70.4-157-157-157zm0 56c55.7 0 101 45.3 101 101 0 55.7-45.3 101-101 101-55.7 0-101-45.3-101-101 0-55.7 45.3-101 101-101z"/>
  <path fill="#e2e8f0" d="M256 206c-27.6 0-50 22.4-50 50v20c0 7.7 6.3 14 14 14h72c7.7 0 14-6.3 14-14v-20c0-27.6-22.4-50-50-50zm-22 50c0-12.2 9.8-22 22-22s22 9.8 22 22v6h-44v-6z"/>
</svg>
